<svg width="102" height="102" viewBox="0 0 102 102" fill="none" xmlns="http://www.w3.org/2000/svg">
<path d="M19.737 20.4H87.312C93.687 20.4 96.9 23.409 96.9 29.529V72.471C96.9 78.54 93.687 81.6 87.312 81.6H19.737C13.362 81.6 10.149 78.54 10.149 72.471V29.529C10.149 23.409 13.362 20.4 19.737 20.4ZM53.499 64.26L87.873 36.057C89.097 35.037 90.066 32.691 88.536 30.6C87.0571 28.509 84.354 28.458 82.5691 29.733L53.499 49.419L24.48 29.733C22.695 28.458 19.992 28.509 18.513 30.6C16.983 32.691 17.952 35.037 19.176 36.057L53.499 64.26Z" fill="#0D99FF"/>
</svg>
