<svg width="103" height="82" viewBox="0 0 103 82" fill="none" xmlns="http://www.w3.org/2000/svg">
<g clip-path="url(#clip0_14_342)">
<path d="M99.9375 56.375H97.375V39.0621C97.375 37.0281 96.5582 35.0742 95.1168 33.6328L79.1172 17.6332C77.6758 16.1918 75.7219 15.375 73.6879 15.375H66.625V7.6875C66.625 3.44336 63.1816 0 58.9375 0H17.9375C13.6934 0 10.25 3.44336 10.25 7.6875V15.375H1.28125C0.576563 15.375 0 15.9516 0 16.6562V19.2188C0 19.9234 0.576563 20.5 1.28125 20.5H44.8438C45.5484 20.5 46.125 21.0766 46.125 21.7812V24.3438C46.125 25.0484 45.5484 25.625 44.8438 25.625H6.40625C5.70156 25.625 5.125 26.2016 5.125 26.9062V29.4688C5.125 30.1734 5.70156 30.75 6.40625 30.75H39.7188C40.4234 30.75 41 31.3266 41 32.0312V34.5938C41 35.2984 40.4234 35.875 39.7188 35.875H1.28125C0.576563 35.875 0 36.4516 0 37.1562V39.7188C0 40.4234 0.576563 41 1.28125 41H34.5938C35.2984 41 35.875 41.5766 35.875 42.2812V44.8438C35.875 45.5484 35.2984 46.125 34.5938 46.125H10.25V66.625C10.25 75.1133 17.1367 82 25.625 82C34.1133 82 41 75.1133 41 66.625H61.5C61.5 75.1133 68.3867 82 76.875 82C85.3633 82 92.25 75.1133 92.25 66.625H99.9375C101.347 66.625 102.5 65.4719 102.5 64.0625V58.9375C102.5 57.5281 101.347 56.375 99.9375 56.375ZM25.625 74.3125C21.3809 74.3125 17.9375 70.8691 17.9375 66.625C17.9375 62.3809 21.3809 58.9375 25.625 58.9375C29.8691 58.9375 33.3125 62.3809 33.3125 66.625C33.3125 70.8691 29.8691 74.3125 25.625 74.3125ZM76.875 74.3125C72.6309 74.3125 69.1875 70.8691 69.1875 66.625C69.1875 62.3809 72.6309 58.9375 76.875 58.9375C81.1191 58.9375 84.5625 62.3809 84.5625 66.625C84.5625 70.8691 81.1191 74.3125 76.875 74.3125ZM89.6875 41H66.625V23.0625H73.6879L89.6875 39.0621V41Z" fill="#0D99FF"/>
</g>
<defs>
<clipPath id="clip0_14_342">
<rect width="102.5" height="82" fill="white"/>
</clipPath>
</defs>
</svg>
