<svg width="100" height="100" viewBox="0 0 100 100" fill="none" xmlns="http://www.w3.org/2000/svg">
<path d="M54.2833 8.33337C58.9708 8.34587 61.35 8.37087 63.4041 8.42921L64.2125 8.45837C65.1458 8.49171 66.0666 8.53337 67.1791 8.58337C71.6125 8.79171 74.6375 9.49171 77.2916 10.5209C80.0416 11.5792 82.3583 13.0125 84.675 15.325C86.7945 17.4073 88.4341 19.927 89.4791 22.7084C90.5083 25.3625 91.2083 28.3875 91.4166 32.825C91.4666 33.9334 91.5083 34.8542 91.5416 35.7917L91.5666 36.6C91.6291 38.65 91.6541 41.0292 91.6625 45.7167L91.6666 48.825V54.2834C91.6768 57.3226 91.6448 60.3617 91.5708 63.4L91.5458 64.2084C91.5125 65.1459 91.4708 66.0667 91.4208 67.175C91.2125 71.6125 90.5041 74.6334 89.4791 77.2917C88.4341 80.0731 86.7945 82.5928 84.675 84.675C82.5928 86.7946 80.073 88.4342 77.2916 89.4792C74.6375 90.5084 71.6125 91.2084 67.1791 91.4167L64.2125 91.5417L63.4041 91.5667C61.35 91.625 58.9708 91.6542 54.2833 91.6626L51.175 91.6667H45.7208C42.6802 91.6774 39.6397 91.6455 36.6 91.5709L35.7916 91.5459C34.8025 91.5084 33.8136 91.4654 32.825 91.4167C28.3916 91.2084 25.3666 90.5084 22.7083 89.4792C19.9284 88.4336 17.4101 86.7941 15.3291 84.675C13.2081 82.5932 11.5671 80.0735 10.5208 77.2917C9.49164 74.6375 8.79164 71.6125 8.5833 67.175L8.4583 64.2084L8.43747 63.4C8.36066 60.3618 8.32594 57.3226 8.3333 54.2834V45.7167C8.32177 42.6775 8.35233 39.6384 8.42497 36.6L8.45414 35.7917C8.48747 34.8542 8.52914 33.9334 8.57914 32.825C8.78747 28.3875 9.48747 25.3667 10.5166 22.7084C11.5654 19.9259 13.2092 17.406 15.3333 15.325C17.4131 13.2065 19.9299 11.567 22.7083 10.5209C25.3666 9.49171 28.3875 8.79171 32.825 8.58337C33.9333 8.53337 34.8583 8.49171 35.7916 8.45837L36.6 8.43337C39.6383 8.35934 42.6775 8.3274 45.7166 8.33754L54.2833 8.33337ZM50 29.1667C44.4746 29.1667 39.1756 31.3616 35.2686 35.2687C31.3616 39.1757 29.1666 44.4747 29.1666 50C29.1666 55.5254 31.3616 60.8244 35.2686 64.7314C39.1756 68.6384 44.4746 70.8334 50 70.8334C55.5253 70.8334 60.8244 68.6384 64.7314 64.7314C68.6384 60.8244 70.8333 55.5254 70.8333 50C70.8333 44.4747 68.6384 39.1757 64.7314 35.2687C60.8244 31.3616 55.5253 29.1667 50 29.1667ZM50 37.5C51.6415 37.4998 53.267 37.8228 54.7837 38.4508C56.3003 39.0787 57.6785 39.9992 58.8394 41.1597C60.0003 42.3203 60.9213 43.6981 61.5498 45.2146C62.1782 46.731 62.5018 48.3564 62.5021 49.998C62.5023 51.6395 62.1793 53.265 61.5513 54.7817C60.9234 56.2983 60.0029 57.6765 58.8424 58.8374C57.6818 59.9983 56.304 60.9193 54.7875 61.5477C53.2711 62.1762 51.6457 62.4998 50.0041 62.5C46.6889 62.5 43.5095 61.1831 41.1653 58.8389C38.8211 56.4947 37.5041 53.3153 37.5041 50C37.5041 46.6848 38.8211 43.5054 41.1653 41.1612C43.5095 38.817 46.6889 37.5 50.0041 37.5M71.8791 22.9167C70.4978 22.9167 69.173 23.4654 68.1963 24.4422C67.2195 25.4189 66.6708 26.7437 66.6708 28.125C66.6708 29.5064 67.2195 30.8311 68.1963 31.8079C69.173 32.7846 70.4978 33.3334 71.8791 33.3334C73.2605 33.3334 74.5852 32.7846 75.562 31.8079C76.5387 30.8311 77.0875 29.5064 77.0875 28.125C77.0875 26.7437 76.5387 25.4189 75.562 24.4422C74.5852 23.4654 73.2605 22.9167 71.8791 22.9167Z" fill="#0D99FF"/>
</svg>
